# xmcd
#
# Track frame offsets: 
#        150
#        13475
#        54802
#        70747
#        86080
#        111145
#        139175
#        155607
#        172582
#        197340
#        215957
#
# Disc length: 4015 seconds
#
# Revision: 5
# Processed by: cddbd v1.5.2PL0 Copyright (c) Steve Scherf et al.
# Submitted via: ExactAudioCopyFreeDBPlugin 1.0
#
DISCID=940fad0b
DTITLE=Taj Mahal - The Perfect Blues Collection [disc 20] Taj Mahal^ T
DTITLE=he Real Thing
DYEAR=2011
DGENRE=Blues
TTITLE0=Fishin' Blues
TTITLE1=Ain't Gwine to Whistle Dixie (Any Mo')
TTITLE2=Sweet Mama Janisse
TTITLE3=Going Up to the Country and Paint My Mailbox Blue
TTITLE4=Bid Kneed Gal
TTITLE5=You're Going to Need Somebody on Your Bond
TTITLE6=Tom and Sally Drake
TTITLE7=Diving Duck Blues
TTITLE8=John, Ain't It Hard
TTITLE9=She Caught the Katy and Left Me a Mule to Ride
TTITLE10=You Ain't No Street Walker Mama, Honey But I Do Like the Way 
TTITLE10=You Strut Your Stuff
EXTD=
EXTT0=
EXTT1=
EXTT2=
EXTT3=
EXTT4=
EXTT5=
EXTT6=
EXTT7=
EXTT8=
EXTT9=
EXTT10=
PLAYORDER=
